<svg aria-roledescription="er" role="graphics-document document" viewBox="0 0 1134.0367431640625 506" style="width: 100%;" xmlns="http://www.w3.org/2000/svg" width="100%" id="diagram-gen"><style>#diagram-gen{font-family:"trebuchet ms",verdana,arial,sans-serif;font-size:16px;fill:#333;}#diagram-gen .error-icon{fill:#552222;}#diagram-gen .error-text{fill:#552222;stroke:#552222;}#diagram-gen .edge-thickness-normal{stroke-width:2px;}#diagram-gen .edge-thickness-thick{stroke-width:3.5px;}#diagram-gen .edge-pattern-solid{stroke-dasharray:0;}#diagram-gen .edge-pattern-dashed{stroke-dasharray:3;}#diagram-gen .edge-pattern-dotted{stroke-dasharray:2;}#diagram-gen .marker{fill:#333333;stroke:#333333;}#diagram-gen .marker.cross{stroke:#333333;}#diagram-gen svg{font-family:"trebuchet ms",verdana,arial,sans-serif;font-size:16px;}#diagram-gen .entityBox{fill:#ECECFF;stroke:#9370DB;}#diagram-gen .attributeBoxOdd{fill:#ffffff;stroke:#9370DB;}#diagram-gen .attributeBoxEven{fill:#f2f2f2;stroke:#9370DB;}#diagram-gen .relationshipLabelBox{fill:hsl(80, 100%, 96.2745098039%);opacity:0.7;background-color:hsl(80, 100%, 96.2745098039%);}#diagram-gen .relationshipLabelBox rect{opacity:0.5;}#diagram-gen .relationshipLine{stroke:#333333;}#diagram-gen .entityTitleText{text-anchor:middle;font-size:18px;fill:#333;}#diagram-gen #MD_PARENT_START{fill:#f5f5f5!important;stroke:#333333!important;stroke-width:1;}#diagram-gen #MD_PARENT_END{fill:#f5f5f5!important;stroke:#333333!important;stroke-width:1;}#diagram-gen :root{--mermaid-font-family:"trebuchet ms",verdana,arial,sans-serif;}</style><g/><defs><marker orient="auto" markerHeight="240" markerWidth="190" refY="7" refX="0" id="MD_PARENT_START"><path d="M 18,7 L9,13 L1,7 L9,1 Z"/></marker></defs><defs><marker orient="auto" markerHeight="28" markerWidth="20" refY="7" refX="19" id="MD_PARENT_END"><path d="M 18,7 L9,13 L1,7 L9,1 Z"/></marker></defs><defs><marker orient="auto" markerHeight="18" markerWidth="18" refY="9" refX="0" id="ONLY_ONE_START"><path d="M9,0 L9,18 M15,0 L15,18" fill="none" stroke="gray"/></marker></defs><defs><marker orient="auto" markerHeight="18" markerWidth="18" refY="9" refX="18" id="ONLY_ONE_END"><path d="M3,0 L3,18 M9,0 L9,18" fill="none" stroke="gray"/></marker></defs><defs><marker orient="auto" markerHeight="18" markerWidth="30" refY="9" refX="0" id="ZERO_OR_ONE_START"><circle r="6" cy="9" cx="21" fill="white" stroke="gray"/><path d="M9,0 L9,18" fill="none" stroke="gray"/></marker></defs><defs><marker orient="auto" markerHeight="18" markerWidth="30" refY="9" refX="30" id="ZERO_OR_ONE_END"><circle r="6" cy="9" cx="9" fill="white" stroke="gray"/><path d="M21,0 L21,18" fill="none" stroke="gray"/></marker></defs><defs><marker orient="auto" markerHeight="36" markerWidth="45" refY="18" refX="18" id="ONE_OR_MORE_START"><path d="M0,18 Q 18,0 36,18 Q 18,36 0,18 M42,9 L42,27" fill="none" stroke="gray"/></marker></defs><defs><marker orient="auto" markerHeight="36" markerWidth="45" refY="18" refX="27" id="ONE_OR_MORE_END"><path d="M3,9 L3,27 M9,18 Q27,0 45,18 Q27,36 9,18" fill="none" stroke="gray"/></marker></defs><defs><marker orient="auto" markerHeight="36" markerWidth="57" refY="18" refX="18" id="ZERO_OR_MORE_START"><circle r="6" cy="18" cx="48" fill="white" stroke="gray"/><path d="M0,18 Q18,0 36,18 Q18,36 0,18" fill="none" stroke="gray"/></marker></defs><defs><marker orient="auto" markerHeight="36" markerWidth="57" refY="18" refX="39" id="ZERO_OR_MORE_END"><circle r="6" cy="18" cx="9" fill="white" stroke="gray"/><path d="M21,18 Q39,0 57,18 Q39,36 21,18" fill="none" stroke="gray"/></marker></defs><path style="stroke: gray; fill: none;" marker-start="url(#ONLY_ONE_START)" marker-end="url(#ONE_OR_MORE_END)" d="M292.106,242.804L276.992,262.503C261.877,282.203,231.648,321.601,205.179,349.634C178.711,377.667,156.003,394.333,144.649,402.667L133.295,411" class="er relationshipLine"/><path style="stroke: gray; fill: none;" marker-start="url(#ONLY_ONE_START)" marker-end="url(#ONE_OR_MORE_END)" d="M314.206,311L312.075,319.333C309.944,327.667,305.681,344.333,322.528,361.402C339.374,378.471,377.329,395.941,396.307,404.676L415.284,413.412" class="er relationshipLine"/><path style="stroke: gray; fill: none;" marker-start="url(#ONLY_ONE_START)" marker-end="url(#ONE_OR_MORE_END)" d="M410.731,263.894L420.487,280.078C430.243,296.263,449.755,328.631,492.591,356.037C535.426,383.443,601.586,405.885,634.666,417.107L667.745,428.328" class="er relationshipLine"/><path style="stroke: gray; fill: none;" marker-start="url(#ONLY_ONE_START)" marker-end="url(#ONE_OR_MORE_END)" d="M410.731,207.469L446.894,233.058C483.057,258.646,555.382,309.823,634.706,347.348C714.031,384.874,800.354,408.748,843.516,420.684L886.678,432.621" class="er relationshipLine"/><path style="stroke: gray; fill: none;" marker-start="url(#ONLY_ONE_START)" marker-end="url(#ONE_OR_MORE_END)" d="M82.202,203L82.202,229.333C82.202,255.667,82.202,308.333,82.202,343C82.202,377.667,82.202,394.333,82.202,402.667L82.202,411" class="er relationshipLine"/><path style="stroke: gray; fill: none;" marker-start="url(#ONLY_ONE_START)" marker-end="url(#ONE_OR_MORE_END)" d="M732.364,215L732.364,239.333C732.364,263.667,732.364,312.333,704.927,346.634C677.491,380.935,622.618,400.87,595.182,410.838L567.745,420.806" class="er relationshipLine"/><path style="stroke: gray; fill: none;" marker-start="url(#ONLY_ONE_START)" marker-end="url(#ONE_OR_MORE_END)" d="M1019.678,239L1008.399,259.333C997.121,279.667,974.564,320.333,935.73,351.392C896.897,382.451,841.787,403.902,814.233,414.628L786.678,425.353" class="er relationshipLine"/><path style="stroke: gray; fill: none;" marker-start="url(#ONLY_ONE_START)" marker-end="url(#ONE_OR_MORE_END)" d="M1079.245,239L1084.445,259.333C1089.646,279.667,1100.046,320.333,1087.09,350.217C1074.134,380.1,1037.82,399.201,1019.663,408.751L1001.506,418.301" class="er relationshipLine"/><g transform="translate(292.1061897277832,20 )" id="entity-TITLE-51ba0630-c798-5da0-a04a-c617e32331c3"><rect height="291" width="118.625" y="0" x="0" class="er entityBox"/><text style="dominant-baseline: middle; text-anchor: middle; font-size: 12px;" transform="translate(59.3125,13.5)" y="0" x="0" id="text-entity-TITLE-51ba0630-c798-5da0-a04a-c617e32331c3" class="er entityLabel">TITLE</text><rect height="24" width="51.59375" y="27" x="0" class="er attributeBoxOdd"/><text style="dominant-baseline: middle; font-size: 10.2px;" transform="translate(5,39)" y="0" x="0" id="text-entity-TITLE-51ba0630-c798-5da0-a04a-c617e32331c3-attr-1-type" class="er entityLabel">INTEGER</text><rect height="24" width="67.03125" y="27" x="51.59375" class="er attributeBoxOdd"/><text style="dominant-baseline: middle; font-size: 10.2px;" transform="translate(56.59375,39)" y="0" x="0" id="text-entity-TITLE-51ba0630-c798-5da0-a04a-c617e32331c3-attr-1-name" class="er entityLabel">id</text><rect height="24" width="51.59375" y="51" x="0" class="er attributeBoxEven"/><text style="dominant-baseline: middle; font-size: 10.2px;" transform="translate(5,63)" y="0" x="0" id="text-entity-TITLE-51ba0630-c798-5da0-a04a-c617e32331c3-attr-2-type" class="er entityLabel">TEXT</text><rect height="24" width="67.03125" y="51" x="51.59375" class="er attributeBoxEven"/><text style="dominant-baseline: middle; font-size: 10.2px;" transform="translate(56.59375,63)" y="0" x="0" id="text-entity-TITLE-51ba0630-c798-5da0-a04a-c617e32331c3-attr-2-name" class="er entityLabel">title</text><rect height="24" width="51.59375" y="75" x="0" class="er attributeBoxOdd"/><text style="dominant-baseline: middle; font-size: 10.2px;" transform="translate(5,87)" y="0" x="0" id="text-entity-TITLE-51ba0630-c798-5da0-a04a-c617e32331c3-attr-3-type" class="er entityLabel">TEXT</text><rect height="24" width="67.03125" y="75" x="51.59375" class="er attributeBoxOdd"/><text style="dominant-baseline: middle; font-size: 10.2px;" transform="translate(56.59375,87)" y="0" x="0" id="text-entity-TITLE-51ba0630-c798-5da0-a04a-c617e32331c3-attr-3-name" class="er entityLabel">overview</text><rect height="24" width="51.59375" y="99" x="0" class="er attributeBoxEven"/><text style="dominant-baseline: middle; font-size: 10.2px;" transform="translate(5,111)" y="0" x="0" id="text-entity-TITLE-51ba0630-c798-5da0-a04a-c617e32331c3-attr-4-type" class="er entityLabel">DATE</text><rect height="24" width="67.03125" y="99" x="51.59375" class="er attributeBoxEven"/><text style="dominant-baseline: middle; font-size: 10.2px;" transform="translate(56.59375,111)" y="0" x="0" id="text-entity-TITLE-51ba0630-c798-5da0-a04a-c617e32331c3-attr-4-name" class="er entityLabel">release_date</text><rect height="24" width="51.59375" y="123" x="0" class="er attributeBoxOdd"/><text style="dominant-baseline: middle; font-size: 10.2px;" transform="translate(5,135)" y="0" x="0" id="text-entity-TITLE-51ba0630-c798-5da0-a04a-c617e32331c3-attr-5-type" class="er entityLabel">TEXT</text><rect height="24" width="67.03125" y="123" x="51.59375" class="er attributeBoxOdd"/><text style="dominant-baseline: middle; font-size: 10.2px;" transform="translate(56.59375,135)" y="0" x="0" id="text-entity-TITLE-51ba0630-c798-5da0-a04a-c617e32331c3-attr-5-name" class="er entityLabel">poster_path</text><rect height="24" width="51.59375" y="147" x="0" class="er attributeBoxEven"/><text style="dominant-baseline: middle; font-size: 10.2px;" transform="translate(5,159)" y="0" x="0" id="text-entity-TITLE-51ba0630-c798-5da0-a04a-c617e32331c3-attr-6-type" class="er entityLabel">DECIMAL</text><rect height="24" width="67.03125" y="147" x="51.59375" class="er attributeBoxEven"/><text style="dominant-baseline: middle; font-size: 10.2px;" transform="translate(56.59375,159)" y="0" x="0" id="text-entity-TITLE-51ba0630-c798-5da0-a04a-c617e32331c3-attr-6-name" class="er entityLabel">budget</text><rect height="24" width="51.59375" y="171" x="0" class="er attributeBoxOdd"/><text style="dominant-baseline: middle; font-size: 10.2px;" transform="translate(5,183)" y="0" x="0" id="text-entity-TITLE-51ba0630-c798-5da0-a04a-c617e32331c3-attr-7-type" class="er entityLabel">INTEGER</text><rect height="24" width="67.03125" y="171" x="51.59375" class="er attributeBoxOdd"/><text style="dominant-baseline: middle; font-size: 10.2px;" transform="translate(56.59375,183)" y="0" x="0" id="text-entity-TITLE-51ba0630-c798-5da0-a04a-c617e32331c3-attr-7-name" class="er entityLabel">revenue</text><rect height="24" width="51.59375" y="195" x="0" class="er attributeBoxEven"/><text style="dominant-baseline: middle; font-size: 10.2px;" transform="translate(5,207)" y="0" x="0" id="text-entity-TITLE-51ba0630-c798-5da0-a04a-c617e32331c3-attr-8-type" class="er entityLabel">INTEGER</text><rect height="24" width="67.03125" y="195" x="51.59375" class="er attributeBoxEven"/><text style="dominant-baseline: middle; font-size: 10.2px;" transform="translate(56.59375,207)" y="0" x="0" id="text-entity-TITLE-51ba0630-c798-5da0-a04a-c617e32331c3-attr-8-name" class="er entityLabel">runtime</text><rect height="24" width="51.59375" y="219" x="0" class="er attributeBoxOdd"/><text style="dominant-baseline: middle; font-size: 10.2px;" transform="translate(5,231)" y="0" x="0" id="text-entity-TITLE-51ba0630-c798-5da0-a04a-c617e32331c3-attr-9-type" class="er entityLabel">TEXT</text><rect height="24" width="67.03125" y="219" x="51.59375" class="er attributeBoxOdd"/><text style="dominant-baseline: middle; font-size: 10.2px;" transform="translate(56.59375,231)" y="0" x="0" id="text-entity-TITLE-51ba0630-c798-5da0-a04a-c617e32331c3-attr-9-name" class="er entityLabel">status</text><rect height="24" width="51.59375" y="243" x="0" class="er attributeBoxEven"/><text style="dominant-baseline: middle; font-size: 10.2px;" transform="translate(5,255)" y="0" x="0" id="text-entity-TITLE-51ba0630-c798-5da0-a04a-c617e32331c3-attr-10-type" class="er entityLabel">TEXT</text><rect height="24" width="67.03125" y="243" x="51.59375" class="er attributeBoxEven"/><text style="dominant-baseline: middle; font-size: 10.2px;" transform="translate(56.59375,255)" y="0" x="0" id="text-entity-TITLE-51ba0630-c798-5da0-a04a-c617e32331c3-attr-10-name" class="er entityLabel">tagline</text><rect height="24" width="51.59375" y="267" x="0" class="er attributeBoxOdd"/><text style="dominant-baseline: middle; font-size: 10.2px;" transform="translate(5,279)" y="0" x="0" id="text-entity-TITLE-51ba0630-c798-5da0-a04a-c617e32331c3-attr-11-type" class="er entityLabel">TEXT</text><rect height="24" width="67.03125" y="267" x="51.59375" class="er attributeBoxOdd"/><text style="dominant-baseline: middle; font-size: 10.2px;" transform="translate(56.59375,279)" y="0" x="0" id="text-entity-TITLE-51ba0630-c798-5da0-a04a-c617e32331c3-attr-11-name" class="er entityLabel">certification</text></g><g transform="translate(20,411 )" id="entity-TITLEGENREREL-18cf6c13-4441-5238-9fa5-8fa2509fbcbb"><rect height="75" width="124.40463256835938" y="0" x="0" class="er entityBox"/><text style="dominant-baseline: middle; text-anchor: middle; font-size: 12px;" transform="translate(62.20231628417969,37.5)" y="0" x="0" id="text-entity-TITLEGENREREL-18cf6c13-4441-5238-9fa5-8fa2509fbcbb" class="er entityLabel">TITLE_GENRE_REL</text></g><g transform="translate(415.28438568115234,411 )" id="entity-TITLECOMPANIESREL-07e97eea-f6bf-5b17-ad83-32cad1cc0167"><rect height="75" width="152.4608612060547" y="0" x="0" class="er entityBox"/><text style="dominant-baseline: middle; text-anchor: middle; font-size: 12px;" transform="translate(76.23043060302734,37.5)" y="0" x="0" id="text-entity-TITLECOMPANIESREL-07e97eea-f6bf-5b17-ad83-32cad1cc0167" class="er entityLabel">TITLE_COMPANIES_REL</text></g><g transform="translate(667.745246887207,411 )" id="entity-TITLECREWREL-8cae6b20-22da-5b4d-8680-a8dc0af632cf"><rect height="75" width="118.93258666992188" y="0" x="0" class="er entityBox"/><text style="dominant-baseline: middle; text-anchor: middle; font-size: 12px;" transform="translate(59.46629333496094,37.5)" y="0" x="0" id="text-entity-TITLECREWREL-8cae6b20-22da-5b4d-8680-a8dc0af632cf" class="er entityLabel">TITLE_CREW_REL</text></g><g transform="translate(886.6778335571289,411 )" id="entity-TITLECASTREL-78748e45-a591-5685-a1d2-ee7a0531685a"><rect height="75" width="114.82855224609375" y="0" x="0" class="er entityBox"/><text style="dominant-baseline: middle; text-anchor: middle; font-size: 12px;" transform="translate(57.414276123046875,37.5)" y="0" x="0" id="text-entity-TITLECASTREL-78748e45-a591-5685-a1d2-ee7a0531685a" class="er entityLabel">TITLE_CAST_REL</text></g><g transform="translate(32.20231628417969,128 )" id="entity-GENRE-96296feb-ea5a-54c6-ae22-bd530bbdc93d"><rect height="75" width="100" y="0" x="0" class="er entityBox"/><text style="dominant-baseline: middle; text-anchor: middle; font-size: 12px;" transform="translate(50,13.5)" y="0" x="0" id="text-entity-GENRE-96296feb-ea5a-54c6-ae22-bd530bbdc93d" class="er entityLabel">GENRE</text><rect height="24" width="56.900909423828125" y="27" x="0" class="er attributeBoxOdd"/><text style="dominant-baseline: middle; font-size: 10.2px;" transform="translate(5,39)" y="0" x="0" id="text-entity-GENRE-96296feb-ea5a-54c6-ae22-bd530bbdc93d-attr-1-type" class="er entityLabel">INTEGER</text><rect height="24" width="43.099090576171875" y="27" x="56.900909423828125" class="er attributeBoxOdd"/><text style="dominant-baseline: middle; font-size: 10.2px;" transform="translate(61.900909423828125,39)" y="0" x="0" id="text-entity-GENRE-96296feb-ea5a-54c6-ae22-bd530bbdc93d-attr-1-name" class="er entityLabel">id</text><rect height="24" width="56.900909423828125" y="51" x="0" class="er attributeBoxEven"/><text style="dominant-baseline: middle; font-size: 10.2px;" transform="translate(5,63)" y="0" x="0" id="text-entity-GENRE-96296feb-ea5a-54c6-ae22-bd530bbdc93d-attr-2-type" class="er entityLabel">TEXT</text><rect height="24" width="43.099090576171875" y="51" x="56.900909423828125" class="er attributeBoxEven"/><text style="dominant-baseline: middle; font-size: 10.2px;" transform="translate(61.900909423828125,63)" y="0" x="0" id="text-entity-GENRE-96296feb-ea5a-54c6-ae22-bd530bbdc93d-attr-2-name" class="er entityLabel">name</text></g><g transform="translate(682.3635864257812,116 )" id="entity-COMPANIES-2096b850-2b44-53d6-8625-02ad1dc56379"><rect height="99" width="100" y="0" x="0" class="er entityBox"/><text style="dominant-baseline: middle; text-anchor: middle; font-size: 12px;" transform="translate(50,13.5)" y="0" x="0" id="text-entity-COMPANIES-2096b850-2b44-53d6-8625-02ad1dc56379" class="er entityLabel">COMPANIES</text><rect height="24" width="51.248077392578125" y="27" x="0" class="er attributeBoxOdd"/><text style="dominant-baseline: middle; font-size: 10.2px;" transform="translate(5,39)" y="0" x="0" id="text-entity-COMPANIES-2096b850-2b44-53d6-8625-02ad1dc56379-attr-1-type" class="er entityLabel">INTEGER</text><rect height="24" width="48.751922607421875" y="27" x="51.248077392578125" class="er attributeBoxOdd"/><text style="dominant-baseline: middle; font-size: 10.2px;" transform="translate(56.248077392578125,39)" y="0" x="0" id="text-entity-COMPANIES-2096b850-2b44-53d6-8625-02ad1dc56379-attr-1-name" class="er entityLabel">id</text><rect height="24" width="51.248077392578125" y="51" x="0" class="er attributeBoxEven"/><text style="dominant-baseline: middle; font-size: 10.2px;" transform="translate(5,63)" y="0" x="0" id="text-entity-COMPANIES-2096b850-2b44-53d6-8625-02ad1dc56379-attr-2-type" class="er entityLabel">TEXT</text><rect height="24" width="48.751922607421875" y="51" x="51.248077392578125" class="er attributeBoxEven"/><text style="dominant-baseline: middle; font-size: 10.2px;" transform="translate(56.248077392578125,63)" y="0" x="0" id="text-entity-COMPANIES-2096b850-2b44-53d6-8625-02ad1dc56379-attr-2-name" class="er entityLabel">name</text><rect height="24" width="51.248077392578125" y="75" x="0" class="er attributeBoxOdd"/><text style="dominant-baseline: middle; font-size: 10.2px;" transform="translate(5,87)" y="0" x="0" id="text-entity-COMPANIES-2096b850-2b44-53d6-8625-02ad1dc56379-attr-3-type" class="er entityLabel">DATE</text><rect height="24" width="48.751922607421875" y="75" x="51.248077392578125" class="er attributeBoxOdd"/><text style="dominant-baseline: middle; font-size: 10.2px;" transform="translate(56.248077392578125,87)" y="0" x="0" id="text-entity-COMPANIES-2096b850-2b44-53d6-8625-02ad1dc56379-attr-3-name" class="er entityLabel">creation</text></g><g transform="translate(1006.8573837280273,92 )" id="entity-PERSON-0411f458-596b-5e40-828e-dbef3c8360ea"><rect height="147" width="107.17939758300781" y="0" x="0" class="er entityBox"/><text style="dominant-baseline: middle; text-anchor: middle; font-size: 12px;" transform="translate(53.589698791503906,13.5)" y="0" x="0" id="text-entity-PERSON-0411f458-596b-5e40-828e-dbef3c8360ea" class="er entityLabel">PERSON</text><rect height="24" width="49.56744384765625" y="27" x="0" class="er attributeBoxOdd"/><text style="dominant-baseline: middle; font-size: 10.2px;" transform="translate(5,39)" y="0" x="0" id="text-entity-PERSON-0411f458-596b-5e40-828e-dbef3c8360ea-attr-1-type" class="er entityLabel">INTEGER</text><rect height="24" width="57.61195373535156" y="27" x="49.56744384765625" class="er attributeBoxOdd"/><text style="dominant-baseline: middle; font-size: 10.2px;" transform="translate(54.56744384765625,39)" y="0" x="0" id="text-entity-PERSON-0411f458-596b-5e40-828e-dbef3c8360ea-attr-1-name" class="er entityLabel">id</text><rect height="24" width="49.56744384765625" y="51" x="0" class="er attributeBoxEven"/><text style="dominant-baseline: middle; font-size: 10.2px;" transform="translate(5,63)" y="0" x="0" id="text-entity-PERSON-0411f458-596b-5e40-828e-dbef3c8360ea-attr-2-type" class="er entityLabel">TEXT</text><rect height="24" width="57.61195373535156" y="51" x="49.56744384765625" class="er attributeBoxEven"/><text style="dominant-baseline: middle; font-size: 10.2px;" transform="translate(54.56744384765625,63)" y="0" x="0" id="text-entity-PERSON-0411f458-596b-5e40-828e-dbef3c8360ea-attr-2-name" class="er entityLabel">name</text><rect height="24" width="49.56744384765625" y="75" x="0" class="er attributeBoxOdd"/><text style="dominant-baseline: middle; font-size: 10.2px;" transform="translate(5,87)" y="0" x="0" id="text-entity-PERSON-0411f458-596b-5e40-828e-dbef3c8360ea-attr-3-type" class="er entityLabel">DATE</text><rect height="24" width="57.61195373535156" y="75" x="49.56744384765625" class="er attributeBoxOdd"/><text style="dominant-baseline: middle; font-size: 10.2px;" transform="translate(54.56744384765625,87)" y="0" x="0" id="text-entity-PERSON-0411f458-596b-5e40-828e-dbef3c8360ea-attr-3-name" class="er entityLabel">birth</text><rect height="24" width="49.56744384765625" y="99" x="0" class="er attributeBoxEven"/><text style="dominant-baseline: middle; font-size: 10.2px;" transform="translate(5,111)" y="0" x="0" id="text-entity-PERSON-0411f458-596b-5e40-828e-dbef3c8360ea-attr-4-type" class="er entityLabel">DATE</text><rect height="24" width="57.61195373535156" y="99" x="49.56744384765625" class="er attributeBoxEven"/><text style="dominant-baseline: middle; font-size: 10.2px;" transform="translate(54.56744384765625,111)" y="0" x="0" id="text-entity-PERSON-0411f458-596b-5e40-828e-dbef3c8360ea-attr-4-name" class="er entityLabel">death</text><rect height="24" width="49.56744384765625" y="123" x="0" class="er attributeBoxOdd"/><text style="dominant-baseline: middle; font-size: 10.2px;" transform="translate(5,135)" y="0" x="0" id="text-entity-PERSON-0411f458-596b-5e40-828e-dbef3c8360ea-attr-5-type" class="er entityLabel">TEXT</text><rect height="24" width="57.61195373535156" y="123" x="49.56744384765625" class="er attributeBoxOdd"/><text style="dominant-baseline: middle; font-size: 10.2px;" transform="translate(54.56744384765625,135)" y="0" x="0" id="text-entity-PERSON-0411f458-596b-5e40-828e-dbef3c8360ea-attr-5-name" class="er entityLabel">known_for</text></g><rect height="17" width="18.8125" y="325.162109375" x="210.2423095703125" class="er relationshipLabelBox"/><text style="text-anchor: middle; dominant-baseline: middle; font-size: 12px;" y="333.662109375" x="219.6485595703125" id="rel1" class="er relationshipLabel">has</text><rect height="17" width="18.8125" y="368.7690734863281" x="333.9176330566406" class="er relationshipLabelBox"/><text style="text-anchor: middle; dominant-baseline: middle; font-size: 12px;" y="377.2690734863281" x="343.3238830566406" id="rel2" class="er relationshipLabel">has</text><rect height="17" width="18.8125" y="363.5246887207031" x="511.61077880859375" class="er relationshipLabelBox"/><text style="text-anchor: middle; dominant-baseline: middle; font-size: 12px;" y="372.0246887207031" x="521.0170288085938" id="rel3" class="er relationshipLabel">has</text><rect height="17" width="18.8125" y="339.2608642578125" x="626.175537109375" class="er relationshipLabelBox"/><text style="text-anchor: middle; dominant-baseline: middle; font-size: 12px;" y="347.7608642578125" x="635.581787109375" id="rel4" class="er relationshipLabel">has</text><rect height="17" width="9.96875" y="298.5" x="77.2176284790039" class="er relationshipLabelBox"/><text style="text-anchor: middle; dominant-baseline: middle; font-size: 12px;" y="307" x="82.2020034790039" id="rel5" class="er relationshipLabel">in</text><rect height="17" width="9.96875" y="345.8204345703125" x="693.1255493164062" class="er relationshipLabelBox"/><text style="text-anchor: middle; dominant-baseline: middle; font-size: 12px;" y="354.3204345703125" x="698.1099243164062" id="rel6" class="er relationshipLabel">in</text><rect height="17" width="9.96875" y="350.63140869140625" x="920.4771118164062" class="er relationshipLabelBox"/><text style="text-anchor: middle; dominant-baseline: middle; font-size: 12px;" y="359.13140869140625" x="925.4614868164062" id="rel7" class="er relationshipLabel">in</text><rect height="17" width="9.96875" y="340.7856140136719" x="1082.500244140625" class="er relationshipLabelBox"/><text style="text-anchor: middle; dominant-baseline: middle; font-size: 12px;" y="349.2856140136719" x="1087.484619140625" id="rel8" class="er relationshipLabel">in</text></svg>